<?xml version="1.0" encoding="UTF-8"?>
<svg width="650px" height="395px" viewBox="0 0 650 395" version="1.1" xmlns="http://www.w3.org/2000/svg" xmlns:xlink="http://www.w3.org/1999/xlink">
    <!-- Generator: Sketch 41.2 (35397) - http://www.bohemiancoding.com/sketch -->
    <title>blockstack-logo-vertical-rev</title>
    <desc>Created with Sketch.</desc>
    <defs></defs>
    <g id="Blockstack" stroke="none" stroke-width="1" fill="none" fill-rule="evenodd">
        <g id="other-branding" transform="translate(-612.000000, -2408.000000)">
            <g id="blockstack-logo-vertical-rev" transform="translate(612.000000, 2408.000000)">
                <rect id="Rectangle" fill="#270F34" x="0" y="0" width="650" height="394.936709"></rect>
                <g transform="translate(157.974684, 106.962025)">
                    <path d="M10,123.43459 L16.9896631,123.43459 C18.1968649,123.43459 19.3135097,123.537201 20.3396312,123.742425 C21.3657527,123.94765 22.2530327,124.273589 23.0014977,124.720254 C23.7499628,125.166919 24.3354469,125.764474 24.7579675,126.512939 C25.1804881,127.261405 25.3917452,128.178864 25.3917452,129.265346 C25.3917452,130.400115 25.0537338,131.450365 24.3777008,132.416126 C23.7016679,133.381888 22.6634899,134.045839 21.2631359,134.407999 L21.2631359,134.552863 C23.0015064,134.842591 24.3233725,135.452219 25.2287738,136.381764 C26.1341751,137.31131 26.586869,138.572817 26.586869,140.166323 C26.586869,141.349381 26.36354,142.375487 25.9168754,143.244672 C25.4702107,144.113857 24.8424752,144.838167 24.0336501,145.417624 C23.2248249,145.997081 22.2711498,146.425631 21.1725962,146.703288 C20.0740427,146.980944 18.8728949,147.11977 17.5691171,147.11977 L10,147.11977 L10,123.43459 Z M16.5912885,133.249092 C18.2572269,133.249092 19.4523387,132.947296 20.1766598,132.343695 C20.9009808,131.740094 21.2631359,130.882994 21.2631359,129.772368 C21.2631359,128.685886 20.8828731,127.901217 20.122336,127.418336 C19.3617989,126.935456 18.2210103,126.694019 16.6999362,126.694019 L14.201041,126.694019 L14.201041,133.249092 L16.5912885,133.249092 Z M17.1345266,143.860342 C18.8728971,143.860342 20.2007991,143.534402 21.1182724,142.882513 C22.0357458,142.230624 22.4944755,141.228662 22.4944755,139.876596 C22.4944755,137.462192 20.7078438,136.255009 17.1345266,136.255009 L14.201041,136.255009 L14.201041,143.860342 L17.1345266,143.860342 Z M44.7793071,123.43459 L48.9441322,123.43459 L48.9441322,143.570615 L60.0624047,143.570615 L60.0624047,147.11977 L44.7793071,147.11977 L44.7793071,123.43459 Z M85.0996424,147.554361 C83.7234324,147.554361 82.4619255,147.270672 81.3150839,146.703288 C80.1682422,146.135903 79.1904235,145.315018 78.3815983,144.240608 C77.5727732,143.166199 76.9390017,141.868476 76.4802651,140.347402 C76.0215284,138.826328 75.7921635,137.100055 75.7921635,135.168533 C75.7921635,133.261154 76.0215284,131.552989 76.4802651,130.043987 C76.9390017,128.534985 77.5727732,127.261406 78.3815983,126.223213 C79.1904235,125.185019 80.1682422,124.388278 81.3150839,123.832965 C82.4619255,123.277652 83.7234324,123 85.0996424,123 C86.4758524,123 87.7373593,123.277652 88.8842009,123.832965 C90.0310426,124.388278 91.0088613,125.185019 91.8176865,126.223213 C92.6265117,127.261406 93.2602831,128.534985 93.7190197,130.043987 C94.1777564,131.552989 94.4071213,133.261154 94.4071213,135.168533 C94.4071213,137.100055 94.1777564,138.826328 93.7190197,140.347402 C93.2602831,141.868476 92.6265117,143.166199 91.8176865,144.240608 C91.0088613,145.315018 90.0310426,146.135903 88.8842009,146.703288 C87.7373593,147.270672 86.4758524,147.554361 85.0996424,147.554361 Z M85.0996424,143.896558 C85.8481075,143.896558 86.5301662,143.691336 87.1458391,143.280888 C87.761512,142.870439 88.2866369,142.284955 88.7212295,141.524418 C89.1558221,140.763881 89.4938336,139.846421 89.7352739,138.772012 C89.9767143,137.697602 90.0974326,136.496455 90.0974326,135.168533 C90.0974326,132.512689 89.6447388,130.430297 88.7393375,128.921295 C87.8339362,127.412293 86.6207166,126.657803 85.0996424,126.657803 C83.5785682,126.657803 82.3653487,127.412293 81.4599474,128.921295 C80.5545461,130.430297 80.1018522,132.512689 80.1018522,135.168533 C80.1018522,136.496455 80.2165346,137.697602 80.445903,138.772012 C80.6752713,139.846421 81.0072468,140.763881 81.4418394,141.524418 C81.8764321,142.284955 82.4015569,142.870439 83.0172298,143.280888 C83.6329027,143.691336 84.3270333,143.896558 85.0996424,143.896558 Z M110.209312,135.349612 C110.209312,133.418089 110.486964,131.685781 111.042277,130.152635 C111.59759,128.619488 112.364151,127.321766 113.341985,126.259428 C114.319818,125.197091 115.478714,124.388278 116.818708,123.832965 C118.158702,123.277652 119.613359,123 121.182721,123 C122.631363,123 123.923049,123.301796 125.057819,123.905397 C126.192589,124.508998 127.146264,125.197092 127.918873,125.969701 L125.564841,128.577244 C124.985384,127.997787 124.339541,127.533022 123.627292,127.182933 C122.915043,126.832845 122.100194,126.657803 121.182721,126.657803 C120.192815,126.657803 119.287428,126.856988 118.46653,127.255365 C117.645633,127.653741 116.945467,128.221118 116.36601,128.957511 C115.786553,129.693904 115.333859,130.593256 115.007915,131.655593 C114.68197,132.717931 114.519001,133.913043 114.519001,135.240964 C114.519001,136.59303 114.68197,137.80625 115.007915,138.880659 C115.333859,139.955069 115.792589,140.860457 116.384118,141.59685 C116.975647,142.333243 117.687885,142.900619 118.520854,143.298996 C119.353824,143.697372 120.277319,143.896558 121.291368,143.896558 C122.25713,143.896558 123.120266,143.691336 123.880803,143.280888 C124.64134,142.870439 125.359615,142.290991 126.035648,141.542526 L128.353463,144.113853 C127.387702,145.224478 126.301237,146.075543 125.094035,146.667072 C123.886833,147.258601 122.534788,147.554361 121.037857,147.554361 C119.516783,147.554361 118.098342,147.28878 116.782492,146.757611 C115.466643,146.226443 114.319818,145.441773 113.341985,144.40358 C112.364151,143.365386 111.59759,142.085772 111.042277,140.564697 C110.486964,139.043623 110.209312,137.305279 110.209312,135.349612 Z M144.843755,123.43459 L149.081012,123.43459 L149.081012,134.190704 L149.18966,134.190704 L157.627958,123.43459 L162.299805,123.43459 L155.020415,132.669638 L163.096555,147.11977 L158.424707,147.11977 L152.52152,135.965282 L149.081012,140.202539 L149.081012,147.11977 L144.843755,147.11977 L144.843755,123.43459 Z M180.202516,141.216583 C181.095846,142.013336 182.103844,142.65918 183.226542,143.154132 C184.349239,143.649085 185.490028,143.896558 186.648942,143.896558 C188.097584,143.896558 189.196121,143.618905 189.944586,143.063593 C190.693051,142.50828 191.067278,141.771898 191.067278,140.854424 C191.067278,140.371544 190.970703,139.961101 190.777551,139.623085 C190.584399,139.285068 190.312782,138.989308 189.962694,138.735796 C189.612605,138.482284 189.190091,138.246883 188.695138,138.029587 C188.200186,137.81229 187.662989,137.594997 187.083532,137.377701 L183.860319,135.965282 C183.232575,135.723842 182.616911,135.422046 182.01331,135.059885 C181.409709,134.697725 180.866477,134.263138 180.383596,133.756114 C179.900715,133.249089 179.514416,132.657569 179.224688,131.981536 C178.93496,131.305503 178.790097,130.532906 178.790097,129.66372 C178.790097,128.722103 178.995319,127.846895 179.405767,127.03807 C179.816216,126.229244 180.383592,125.523042 181.107913,124.919441 C181.832234,124.31584 182.695371,123.845039 183.697348,123.507022 C184.699325,123.169006 185.803898,123 187.0111,123 C188.459742,123 189.841968,123.271616 191.157817,123.814857 C192.473667,124.358098 193.626528,125.088444 194.616433,126.005917 L192.443481,128.685892 C191.646728,128.058147 190.813771,127.563202 189.944586,127.201041 C189.075401,126.838881 188.097582,126.657803 187.0111,126.657803 C185.779754,126.657803 184.807972,126.905276 184.095723,127.400228 C183.383474,127.895181 183.027354,128.57724 183.027354,129.446425 C183.027354,129.905162 183.136001,130.297496 183.353297,130.623441 C183.570594,130.949385 183.866354,131.239109 184.240586,131.492622 C184.614819,131.746134 185.049405,131.969463 185.544357,132.162615 C186.03931,132.355768 186.552363,132.560989 187.083532,132.778285 L190.198097,134.118272 C190.946562,134.408001 191.634657,134.746012 192.262402,135.132317 C192.890146,135.518621 193.433379,135.965279 193.892116,136.472304 C194.350852,136.979329 194.706972,137.564813 194.960484,138.228774 C195.213996,138.892735 195.340751,139.659296 195.340751,140.528482 C195.340751,141.494243 195.141565,142.399631 194.743189,143.244672 C194.344812,144.089713 193.7714,144.832131 193.022935,145.471948 C192.27447,146.111765 191.35701,146.618782 190.270529,146.993015 C189.184047,147.367247 187.95272,147.554361 186.57651,147.554361 C184.910571,147.554361 183.317089,147.252565 181.796015,146.648964 C180.274941,146.045363 178.922895,145.188263 177.739837,144.077637 L180.202516,141.216583 Z M218.205036,126.983746 L210.744567,126.983746 L210.744567,123.43459 L229.866547,123.43459 L229.866547,126.983746 L222.406077,126.983746 L222.406077,147.11977 L218.205036,147.11977 L218.205036,126.983746 Z M257.040521,137.413917 L256.207556,134.516647 C255.869539,133.261157 255.519456,131.969471 255.157295,130.641549 C254.795135,129.313627 254.445052,127.997797 254.107035,126.694019 L253.962172,126.694019 C253.624155,128.021941 253.280108,129.343807 252.930019,130.659657 C252.579931,131.975507 252.223812,133.261157 251.861651,134.516647 L251.028686,137.413917 L257.040521,137.413917 Z M257.982133,140.709561 L250.087073,140.709561 L248.240064,147.11977 L243.966591,147.11977 L251.644356,123.43459 L256.569714,123.43459 L264.247479,147.11977 L259.792927,147.11977 L257.982133,140.709561 Z M279.216705,135.349612 C279.216705,133.418089 279.494357,131.685781 280.04967,130.152635 C280.604982,128.619488 281.371544,127.321766 282.349377,126.259428 C283.327211,125.197091 284.486107,124.388278 285.826101,123.832965 C287.166095,123.277652 288.620751,123 290.190114,123 C291.638756,123 292.930442,123.301796 294.065212,123.905397 C295.199981,124.508998 296.153656,125.197092 296.926266,125.969701 L294.572234,128.577244 C293.992777,127.997787 293.346934,127.533022 292.634685,127.182933 C291.922436,126.832845 291.107587,126.657803 290.190114,126.657803 C289.200208,126.657803 288.29482,126.856988 287.473923,127.255365 C286.653026,127.653741 285.95286,128.221118 285.373403,128.957511 C284.793946,129.693904 284.341252,130.593256 284.015308,131.655593 C283.689363,132.717931 283.526393,133.913043 283.526393,135.240964 C283.526393,136.59303 283.689363,137.80625 284.015308,138.880659 C284.341252,139.955069 284.799982,140.860457 285.391511,141.59685 C285.983039,142.333243 286.695278,142.900619 287.528247,143.298996 C288.361216,143.697372 289.284712,143.896558 290.298761,143.896558 C291.264523,143.896558 292.127659,143.691336 292.888196,143.280888 C293.648733,142.870439 294.367007,142.290991 295.04304,141.542526 L297.360856,144.113853 C296.395095,145.224478 295.308629,146.075543 294.101428,146.667072 C292.894226,147.258601 291.54218,147.554361 290.04525,147.554361 C288.524176,147.554361 287.105735,147.28878 285.789885,146.757611 C284.474035,146.226443 283.327211,145.441773 282.349377,144.40358 C281.371544,143.365386 280.604982,142.085772 280.04967,140.564697 C279.494357,139.043623 279.216705,137.305279 279.216705,135.349612 Z M313.851148,123.43459 L318.088405,123.43459 L318.088405,134.190704 L318.197053,134.190704 L326.635351,123.43459 L331.307198,123.43459 L324.027808,132.669638 L332.103947,147.11977 L327.4321,147.11977 L321.528913,135.965282 L318.088405,140.202539 L318.088405,147.11977 L313.851148,147.11977 L313.851148,123.43459 Z" id="BLOCKSTACK" fill="#FFFFFF"></path>
                    <g id="bsk-bug-rev" stroke-width="1" transform="translate(136.000000, 10.000000)">
                        <g id="stereocopy" transform="translate(0.000000, 1.188117)">
                            <path d="M17.5860683,20.8200598 C23.4202084,20.8200598 28.1497135,16.2004599 28.1497135,10.5018946 C28.1497135,4.80332939 23.4202084,0.183729503 17.5860683,0.183729503 C11.7519282,0.183729503 7.02242319,4.80332939 7.02242319,10.5018946 C7.02242319,16.2004599 11.7519282,20.8200598 17.5860683,20.8200598 Z M59.8406489,20.8200598 C65.674789,20.8200598 70.404294,16.2004599 70.404294,10.5018946 C70.404294,4.80332939 65.674789,0.183729503 59.8406489,0.183729503 C54.0065087,0.183729503 49.2770037,4.80332939 49.2770037,10.5018946 C49.2770037,16.2004599 54.0065087,20.8200598 59.8406489,20.8200598 Z M59.8406489,62.0927203 C65.674789,62.0927203 70.404294,57.4731204 70.404294,51.7745552 C70.404294,46.0759899 65.674789,41.45639 59.8406489,41.45639 C54.0065087,41.45639 49.2770037,46.0759899 49.2770037,51.7745552 C49.2770037,57.4731204 54.0065087,62.0927203 59.8406489,62.0927203 Z M17.5860683,62.0927203 C23.4202084,62.0927203 28.1497135,57.4731204 28.1497135,51.7745552 C28.1497135,46.0759899 23.4202084,41.45639 17.5860683,41.45639 C11.7519282,41.45639 7.02242319,46.0759899 7.02242319,51.7745552 C7.02242319,57.4731204 11.7519282,62.0927203 17.5860683,62.0927203 Z" id="4dots-electric-blue" fill="#2C96FF"></path>
                            <path d="M10.5636451,23.5637537 C16.3977852,23.5637537 21.1272903,18.9441538 21.1272903,13.2455885 C21.1272903,7.5470233 16.3977852,2.92742341 10.5636451,2.92742341 C4.72950502,2.92742341 -9.9475983e-14,7.5470233 -9.9475983e-14,13.2455885 C-9.9475983e-14,18.9441538 4.72950502,23.5637537 10.5636451,23.5637537 Z M52.8182257,23.5637537 C58.6523658,23.5637537 63.3818708,18.9441538 63.3818708,13.2455885 C63.3818708,7.5470233 58.6523658,2.92742341 52.8182257,2.92742341 C46.9840856,2.92742341 42.2545805,7.5470233 42.2545805,13.2455885 C42.2545805,18.9441538 46.9840856,23.5637537 52.8182257,23.5637537 Z M52.8182257,64.8364142 C58.6523658,64.8364142 63.3818708,60.2168143 63.3818708,54.5182491 C63.3818708,48.8196838 58.6523658,44.2000839 52.8182257,44.2000839 C46.9840856,44.2000839 42.2545805,48.8196838 42.2545805,54.5182491 C42.2545805,60.2168143 46.9840856,64.8364142 52.8182257,64.8364142 Z M10.5636451,64.8364142 C16.3977852,64.8364142 21.1272903,60.2168143 21.1272903,54.5182491 C21.1272903,48.8196838 16.3977852,44.2000839 10.5636451,44.2000839 C4.72950502,44.2000839 -9.9475983e-14,48.8196838 -9.9475983e-14,54.5182491 C-9.9475983e-14,60.2168143 4.72950502,64.8364142 10.5636451,64.8364142 Z" id="4dots-magenta" fill="#E91E63"></path>
                        </g>
                        <path d="M14.0748567,20.6363303 C19.9089968,20.6363303 24.6385019,16.0167304 24.6385019,10.3181651 C24.6385019,4.61959988 19.9089968,0 14.0748567,0 C8.24071662,0 3.51121159,4.61959988 3.51121159,10.3181651 C3.51121159,16.0167304 8.24071662,20.6363303 14.0748567,20.6363303 Z M56.3294373,20.6363303 C62.1635774,20.6363303 66.8930824,16.0167304 66.8930824,10.3181651 C66.8930824,4.61959988 62.1635774,0 56.3294373,0 C50.4952972,0 45.7657921,4.61959988 45.7657921,10.3181651 C45.7657921,16.0167304 50.4952972,20.6363303 56.3294373,20.6363303 Z M56.3294373,61.9089908 C62.1635774,61.9089908 66.8930824,57.2893909 66.8930824,51.5908257 C66.8930824,45.8922604 62.1635774,41.2726605 56.3294373,41.2726605 C50.4952972,41.2726605 45.7657921,45.8922604 45.7657921,51.5908257 C45.7657921,57.2893909 50.4952972,61.9089908 56.3294373,61.9089908 Z M14.0748567,61.9089908 C19.9089968,61.9089908 24.6385019,57.2893909 24.6385019,51.5908257 C24.6385019,45.8922604 19.9089968,41.2726605 14.0748567,41.2726605 C8.24071662,41.2726605 3.51121159,45.8922604 3.51121159,51.5908257 C3.51121159,57.2893909 8.24071662,61.9089908 14.0748567,61.9089908 Z" id="4dots-rev" fill="#FFFFFF"></path>
                    </g>
                </g>
            </g>
        </g>
    </g>
</svg>